<?xml version="1.0" standalone="no"?><!DOCTYPE svg PUBLIC "-//W3C//DTD SVG 1.1//EN" "http://www.w3.org/Graphics/SVG/1.1/DTD/svg11.dtd"><svg t="1585148655133" class="icon" viewBox="0 0 1024 1024" version="1.1" xmlns="http://www.w3.org/2000/svg" p-id="1175" xmlns:xlink="http://www.w3.org/1999/xlink" width="200" height="200"><defs><style type="text/css"></style></defs><path d="M657.28 220.48a32 32 0 0 1 29.44-56.96A388.16 388.16 0 0 1 512 896a388.16 388.16 0 0 1-174.72-732.48 32 32 0 1 1 29.44 56.96 322.56 322.56 0 1 0 465.28 288 323.52 323.52 0 0 0-174.72-288z" p-id="1176" fill="#2c2c2c"></path><path d="M480 96a32 32 0 0 1 64 0v320a32 32 0 0 1-64 0z" p-id="1177" fill="#2c2c2c"></path></svg>