<?xml version="1.0" standalone="no"?><!DOCTYPE svg PUBLIC "-//W3C//DTD SVG 1.1//EN" "http://www.w3.org/Graphics/SVG/1.1/DTD/svg11.dtd"><svg t="1585299156719" class="icon" viewBox="0 0 1024 1024" version="1.1" xmlns="http://www.w3.org/2000/svg" p-id="715" xmlns:xlink="http://www.w3.org/1999/xlink" width="200" height="200"><defs><style type="text/css"></style></defs><path d="M295.305703 947.803597l-78.011748-0.033769c-70.676689-0.066515-91.128487-20.217461-91.14486-89.791026l-0.016373-346.751399c-0.434905 0.334621-0.852414 0.651846-1.269923 0.985444-15.923668 12.264325-31.16172 18.21178-46.582945 18.21178-12.748349 0-31.29475-4.177136-47.335075-24.110117-14.102183-17.560958-15.404852-34.169217-14.018272-45.013193 3.02387-23.475667 20.067035-38.579667 32.631188-47.886637l374.085954-277.226952c18.412348-13.566994 36.842093-27.117614 54.836933-41.203424 27.853371-21.838378 59.682287-21.654182 87.702458 0.734734l194.169281 154.703431C833.2854 308.503283 906.234853 366.582049 979.084021 424.777473c19.365046 15.454994 29.774117 32.564673 30.927383 50.810223 0.701988 11.094686-1.771343 27.719318-17.510816 43.926442-16.273638 16.775059-33.366945 20.300348-44.828998 20.300348-15.873526 0-31.512714-6.466272-47.786353-19.732413l-0.083911 331.86434c-0.016373 77.042677-19.014052 95.856162-96.758718 95.856162l-124.995829-0.033769-55.923684 0.016373c-56.023968 0-79.933517-23.475667-80.116689-78.496795l-0.184195-36.908608c-0.25071-41.888016-0.485047-83.776032 0.350994-125.647675-15.773242 0.701988-31.595602 0.567935-47.385217 0.267083 0.25071 38.379099 0.200568 75.589582 0.134053 112.782669l-0.033769 44.343951c-0.016373 60.969607-22.406313 83.643002-82.606393 83.659375L295.305703 947.803597zM195.271382 878.56363c4.177136 0.434905 10.994402 0.75213 22.089088 0.768503l136.40774 0.033769 58.496276-0.016373c6.449899 0 10.760065-0.234337 13.617136-0.517793 0.300852-3.007497 0.567935-7.652284 0.567935-14.72026l0.033769-44.411489c0.066515-41.787732 0.116657-83.575464-0.284479-125.364219-0.066515-6.500041-0.25071-26.2652 14.686491-41.35385 9.708106-9.80839 22.857591-14.770402 39.114856-14.770402 25.596981 0.63445 45.146223 1.069355 66.499553-0.25071 21.904892-1.336438 37.46017 3.792373 48.939619 15.522532 16.023952 16.407692 15.505136 38.96443 15.321964 46.366004-1.019213 44.026726-0.75213 88.087221-0.50142 132.147716l0.184195 37.059034c0.016373 4.394077 0.166799 7.602142 0.367367 9.891278 2.506077 0.216941 6.098905 0.401136 11.177574 0.401136l56.056714-0.016373 124.57832 0.033769c6.231935 0 19.74981 0 27.970028-0.802272 0.768503-7.986905 0.768503-20.935822 0.768503-26.649963l0.100284-371.446847c0-6.231935 0.584308-12.531408 1.403976-20.418029l1.069355-11.19497c1.069355-12.515035 8.905834-23.441898 20.400632-28.471448 2.222621-0.969071 4.511757-1.687432 6.817266-2.155083-47.786353-38.112016-95.622848-76.190263-143.441946-114.25316L523.476379 149.204184c-0.618077-0.50142-1.153266-0.902556-1.620917-1.219781-0.350994 0.25071-0.75213 0.551562-1.203408 0.902556-18.530029 14.485923-37.477566 28.455075-56.42408 42.405809L168.370709 410.524864c2.556219 0.618077 5.079692 1.537006 7.485485 2.756787 11.478426 5.830799 18.7132 17.627473 18.7132 30.509874l0.016373 414.153508C194.58679 868.187305 194.887642 874.587062 195.271382 878.56363z" p-id="716"></path></svg>