<?xml version="1.0" standalone="no"?><!DOCTYPE svg PUBLIC "-//W3C//DTD SVG 1.1//EN" "http://www.w3.org/Graphics/SVG/1.1/DTD/svg11.dtd"><svg t="1585303830046" class="icon" viewBox="0 0 1024 1024" version="1.1" xmlns="http://www.w3.org/2000/svg" p-id="14930" xmlns:xlink="http://www.w3.org/1999/xlink" width="200" height="200"><defs><style type="text/css"></style></defs><path d="M806.129924 761.850441c-18.235316-32.151257-40.909735-39.887452-41.628096-40.127929l-28.732391-7.617491 0-29.810956L735.769436 314.679959c-40.548508-34.190707-81.877799-59.325154-122.964566-74.800613l-30.832216-11.576663 6.479575-32.270984c0.958838-4.91801 1.499144-10.016121 1.499144-15.294334 0-42.707684-34.790364-77.437673-77.437673-77.437673-42.708707 0-77.498048 34.729989-77.498048 77.437673 0 5.03876 0.539282 10.016121 1.438769 14.815427l6.178723 32.210609-30.712489 11.395538c-58.062394 21.533432-100.230796 56.865125-118.345362 73.89908l0 371.233999 0 24.172539-21.713534 10.617825c-26.872021 13.196557-42.648332 28.851095-51.885717 42.766013L806.129924 761.848395M861.133655 800.597931l-692.921559 0c0 0-4.379751-71.678506 86.614683-116.304889 0-73.538877 0-387.249765 0-387.249765 0 0.001023 54.464449-61.062727 143.599536-94.172823-1.38044-7.197936-2.099824-14.575973-2.099824-22.13309 0-64.12139 52.004421-116.187209 116.187209-116.187209 64.120366 0 116.125811 52.064796 116.125811 116.187209 0 7.857968-0.778736 15.47546-2.217505 22.913872 46.844911 17.575284 96.511077 47.266513 148.09799 93.393064 0 258.586406 0 387.249765 0 387.249765S840.019779 701.747575 861.133655 800.597931L861.133655 800.597931 861.133655 800.597931z" p-id="14931"></path><path d="M511.245823 916.77286c21.523199 0 39.628556-14.449084 44.665269-33.874505l-89.271186 0C471.675596 902.322753 489.782999 916.77286 511.245823 916.77286M511.245823 955.50193c-46.76407 0-84.714404-37.411051-84.714404-83.515089 0-9.772574 1.738597-19.125593 4.856611-27.878954l159.77596 0c3.177366 8.752338 4.856611 18.105357 4.856611 27.878954C596.019579 918.090878 558.069245 955.50193 511.245823 955.50193L511.245823 955.50193 511.245823 955.50193z" p-id="14932"></path></svg>