<?xml version="1.0" standalone="no"?><!DOCTYPE svg PUBLIC "-//W3C//DTD SVG 1.1//EN" "http://www.w3.org/Graphics/SVG/1.1/DTD/svg11.dtd"><svg t="1585303577098" class="icon" viewBox="0 0 1024 1024" version="1.1" xmlns="http://www.w3.org/2000/svg" p-id="11734" xmlns:xlink="http://www.w3.org/1999/xlink" width="200" height="200"><defs><style type="text/css"></style></defs><path d="M150.652121 541.944242m23.686465 0l675.322828 0q23.686465 0 23.686465 23.686465l0-0.051717q0 23.686465-23.686465 23.686465l-675.322828 0q-23.686465 0-23.686465-23.686465l0 0.051717q0-23.686465 23.686465-23.686465Z" p-id="11735"></path><path d="M150.652121 330.627879m23.686465 0l675.322828 0q23.686465 0 23.686465 23.686464l0-0.051717q0 23.686465-23.686465 23.686465l-675.322828 0q-23.686465 0-23.686465-23.686465l0 0.051717q0-23.686465 23.686465-23.686464Z" p-id="11736"></path><path d="M150.652121 753.260606m23.686465 0l675.322828 0q23.686465 0 23.686465 23.686465l0-0.051717q0 23.686465-23.686465 23.686464l-675.322828 0q-23.686465 0-23.686465-23.686464l0 0.051717q0-23.686465 23.686465-23.686465Z" p-id="11737"></path><path d="M277.410909 0m23.686465 0l-0.051717 0q23.686465 0 23.686464 23.686465l0 86.833131q0 23.686465-23.686464 23.686465l0.051717 0q-23.686465 0-23.686465-23.686465l0-86.833131q0-23.686465 23.686465-23.686465Z" p-id="11738"></path><path d="M372.105051 44.114747h279.789898v47.321213h-279.789898z" p-id="11739"></path><path d="M699.267879 0m23.686464 0l-0.051717 0q23.686465 0 23.686465 23.686465l0 86.833131q0 23.686465-23.686465 23.686465l0.051717 0q-23.686465 0-23.686464-23.686465l0-86.833131q0-23.686465 23.686464-23.686465Z" p-id="11740"></path><path d="M1013.553131 44.114747h-219.642828v47.37293h172.528485v842.989899a42.149495 42.149495 0 0 1-42.097778 42.149495H57.561212v-842.989899a42.097778 42.097778 0 0 1 42.149495-42.097778h130.37899V44.114747H99.710707A89.470707 89.470707 0 0 0 10.24 133.585455V1024h914.10101A89.41899 89.41899 0 0 0 1013.553131 934.529293z" p-id="11741"></path></svg>